<svg width="20" height="14" viewBox="0 0 20 14" fill="none" xmlns="http://www.w3.org/2000/svg">
<path d="M9.99999 0.333336C7.34785 0.333336 4.80431 1.3869 2.92893 3.26227C1.05357 5.13761 9.00858e-07 7.68118 9.00858e-07 10.3333C-0.00044079 11.3656 0.161541 12.3914 0.48 13.3733C0.506406 13.4576 0.559966 13.5308 0.632322 13.5814C0.70468 13.6321 0.791769 13.6573 0.88 13.6533H19.12C19.2082 13.6573 19.2953 13.6321 19.3677 13.5814C19.44 13.5308 19.4936 13.4576 19.52 13.3733C19.8384 12.3914 20.0004 11.3656 20 10.3333C20 7.68118 18.9464 5.13761 17.0711 3.26227C15.1957 1.3869 12.6521 0.333336 9.99999 0.333336ZM17.92 10.7333H19.12C19.1146 11.4517 19.0069 12.1654 18.8 12.8533H1.2C0.993161 12.1654 0.885411 11.4517 0.88 10.7333H2.08C2.18609 10.7333 2.28783 10.6912 2.36284 10.6162C2.43786 10.5411 2.48 10.4394 2.48 10.3333C2.48 10.2272 2.43786 10.1256 2.36284 10.0504C2.28783 9.97545 2.18609 9.93334 2.08 9.93334H0.84C0.904378 8.60578 1.2594 7.30861 1.88 6.13335L2.92001 6.73332H3.16001C3.2325 6.73578 3.30429 6.71846 3.36772 6.68321C3.43112 6.648 3.48377 6.59618 3.51999 6.53334C3.56616 6.43654 3.57538 6.32619 3.54591 6.22307C3.51646 6.11995 3.45033 6.03115 3.35999 5.97335L2.28 5.41335C3.00297 4.291 3.95767 3.3363 5.08 2.61334L5.67999 3.69334C5.71912 3.75351 5.7724 3.80319 5.83514 3.83804C5.89791 3.87291 5.96823 3.89188 6.04 3.89335H6.23999C6.29538 3.86462 6.34402 3.82446 6.3827 3.77551C6.42138 3.72655 6.44922 3.66995 6.46436 3.60941C6.47949 3.54889 6.48157 3.48586 6.47048 3.42446C6.45937 3.36308 6.43537 3.30474 6.39999 3.25335L5.8 2.21334C6.97528 1.59274 8.27249 1.23771 9.59999 1.17334V2.41334C9.59999 2.51942 9.64213 2.62116 9.71714 2.69618C9.79217 2.77119 9.8939 2.81334 9.99999 2.81334C10.1061 2.81334 10.2078 2.77119 10.2828 2.69618C10.3579 2.62116 10.4 2.51942 10.4 2.41334V1.17334C11.7276 1.23771 13.0247 1.59274 14.2 2.21334L13.6 3.25335C13.5419 3.35418 13.5261 3.47392 13.5561 3.58637C13.5861 3.69882 13.6593 3.7948 13.76 3.85334H13.96C14.0318 3.85189 14.1021 3.83292 14.1648 3.79806C14.2276 3.76318 14.2809 3.7135 14.32 3.65335L14.92 2.57334C16.0423 3.29631 16.997 4.25099 17.72 5.37332L16.64 5.97335C16.5497 6.03115 16.4836 6.11995 16.4541 6.22307C16.4247 6.32619 16.4339 6.43654 16.48 6.53334C16.5162 6.59618 16.5689 6.648 16.6323 6.68321C16.6957 6.71846 16.7676 6.73578 16.84 6.73332H17.08L18.12 6.13335C18.7406 7.30861 19.0957 8.60578 19.16 9.93334H17.92C17.8642 9.92778 17.8079 9.93389 17.7547 9.95145C17.7013 9.969 17.6524 9.99767 17.6109 10.0353C17.5694 10.0731 17.5363 10.1191 17.5138 10.1704C17.4912 10.2218 17.4798 10.2772 17.48 10.3333C17.49 10.443 17.5408 10.5449 17.6222 10.6189C17.7037 10.693 17.8099 10.7338 17.92 10.7333Z" fill="#9BA1B2"/>
</svg>
